<svg width="648" height="615" viewBox="0 0 648 615" fill="none" xmlns="http://www.w3.org/2000/svg">
<path fill-rule="evenodd" clip-rule="evenodd" d="M296.126 16.2995C364.676 9.91686 434.978 -14.8702 497.632 12.862C566.401 43.3007 635.236 98.9664 646.692 171.467C658.006 243.075 593.341 302.05 552.952 362.978C523.029 408.118 482.164 440.343 443.201 478.439C394.361 526.192 364.842 605.136 296.126 614.089C227.374 623.046 170.488 564.069 117.257 520.905C67.4568 480.524 11.6606 437.137 1.24525 374.977C-8.75804 315.276 44.1649 266.132 65.0172 209.132C85.0505 154.37 75.4786 85.8265 120.884 47.9409C167.067 9.40718 235.498 21.9446 296.126 16.2995Z" fill="#003049"/>
</svg>
