<svg width="199" height="30" viewBox="0 0 199 30" fill="none" xmlns="http://www.w3.org/2000/svg">
<path d="M1.592 9.632H7.208V29H1.592V9.632ZM4.4 6.932C3.368 6.932 2.528 6.632 1.88 6.032C1.232 5.432 0.908 4.688 0.908 3.8C0.908 2.912 1.232 2.168 1.88 1.568C2.528 0.967998 3.368 0.667998 4.4 0.667998C5.432 0.667998 6.272 0.955998 6.92 1.532C7.568 2.108 7.892 2.828 7.892 3.692C7.892 4.628 7.568 5.408 6.92 6.032C6.272 6.632 5.432 6.932 4.4 6.932ZM24.1921 9.344C26.5921 9.344 28.5241 10.064 29.9881 11.504C31.4761 12.944 32.2201 15.08 32.2201 17.912V29H26.6041V18.776C26.6041 17.24 26.2681 16.1 25.5961 15.356C24.9241 14.588 23.9521 14.204 22.6801 14.204C21.2641 14.204 20.1361 14.648 19.2961 15.536C18.4561 16.4 18.0361 17.696 18.0361 19.424V29H12.4201V9.632H17.7841V11.9C18.5281 11.084 19.4521 10.46 20.5561 10.028C21.6601 9.572 22.8721 9.344 24.1921 9.344ZM49.8028 28.064C49.2508 28.472 48.5668 28.784 47.7508 29C46.9588 29.192 46.1188 29.288 45.2308 29.288C42.9268 29.288 41.1388 28.7 39.8668 27.524C38.6188 26.348 37.9948 24.62 37.9948 22.34V14.384H35.0068V10.064H37.9948V5.348H43.6108V10.064H48.4348V14.384H43.6108V22.268C43.6108 23.084 43.8148 23.72 44.2227 24.176C44.6548 24.608 45.2548 24.824 46.0228 24.824C46.9108 24.824 47.6668 24.584 48.2908 24.104L49.8028 28.064ZM55.4308 29.288C54.4468 29.288 53.6188 28.952 52.9468 28.28C52.2748 27.608 51.9388 26.768 51.9388 25.76C51.9388 24.728 52.2748 23.9 52.9468 23.276C53.6188 22.628 54.4468 22.304 55.4308 22.304C56.4148 22.304 57.2428 22.628 57.9148 23.276C58.5868 23.9 58.9228 24.728 58.9228 25.76C58.9228 26.768 58.5868 27.608 57.9148 28.28C57.2428 28.952 56.4148 29.288 55.4308 29.288Z" fill="#2A9D8F"/>
<path d="M68.0927 12.188C68.7647 11.252 69.6647 10.544 70.7927 10.064C71.9447 9.584 73.2647 9.344 74.7527 9.344V14.528C74.1287 14.48 73.7087 14.456 73.4927 14.456C71.8847 14.456 70.6247 14.912 69.7127 15.824C68.8007 16.712 68.3447 18.056 68.3447 19.856V29H62.7287V9.632H68.0927V12.188ZM96.8882 19.388C96.8882 19.46 96.8522 19.964 96.7802 20.9H82.1282C82.3922 22.1 83.0162 23.048 84.0002 23.744C84.9842 24.44 86.2082 24.788 87.6722 24.788C88.6802 24.788 89.5682 24.644 90.3362 24.356C91.1282 24.044 91.8602 23.564 92.5322 22.916L95.5202 26.156C93.6962 28.244 91.0322 29.288 87.5282 29.288C85.3442 29.288 83.4122 28.868 81.7322 28.028C80.0522 27.164 78.7562 25.976 77.8442 24.464C76.9322 22.952 76.4762 21.236 76.4762 19.316C76.4762 17.42 76.9202 15.716 77.8082 14.204C78.7202 12.668 79.9562 11.48 81.5162 10.64C83.1002 9.776 84.8642 9.344 86.8082 9.344C88.7042 9.344 90.4202 9.752 91.9562 10.568C93.4922 11.384 94.6922 12.56 95.5562 14.096C96.4442 15.608 96.8882 17.372 96.8882 19.388ZM86.8442 13.592C85.5722 13.592 84.5042 13.952 83.6402 14.672C82.7762 15.392 82.2482 16.376 82.0562 17.624H91.5962C91.4042 16.4 90.8762 15.428 90.0122 14.708C89.1482 13.964 88.0922 13.592 86.8442 13.592ZM107.143 29.288C105.535 29.288 103.963 29.096 102.427 28.712C100.891 28.304 99.6672 27.8 98.7552 27.2L100.627 23.168C101.491 23.72 102.535 24.176 103.759 24.536C104.983 24.872 106.183 25.04 107.359 25.04C109.735 25.04 110.923 24.452 110.923 23.276C110.923 22.724 110.599 22.328 109.951 22.088C109.303 21.848 108.307 21.644 106.963 21.476C105.379 21.236 104.071 20.96 103.039 20.648C102.007 20.336 101.107 19.784 100.339 18.992C99.5952 18.2 99.2232 17.072 99.2232 15.608C99.2232 14.384 99.5712 13.304 100.267 12.368C100.987 11.408 102.019 10.664 103.363 10.136C104.731 9.608 106.339 9.344 108.187 9.344C109.555 9.344 110.911 9.5 112.255 9.812C113.623 10.1 114.751 10.508 115.639 11.036L113.767 15.032C112.063 14.072 110.203 13.592 108.187 13.592C106.987 13.592 106.087 13.76 105.487 14.096C104.887 14.432 104.587 14.864 104.587 15.392C104.587 15.992 104.911 16.412 105.559 16.652C106.207 16.892 107.239 17.12 108.655 17.336C110.239 17.6 111.535 17.888 112.543 18.2C113.551 18.488 114.427 19.028 115.171 19.82C115.915 20.612 116.287 21.716 116.287 23.132C116.287 24.332 115.927 25.4 115.207 26.336C114.487 27.272 113.431 28.004 112.039 28.532C110.671 29.036 109.039 29.288 107.143 29.288ZM126.268 29.288C124.66 29.288 123.088 29.096 121.552 28.712C120.016 28.304 118.792 27.8 117.88 27.2L119.752 23.168C120.616 23.72 121.66 24.176 122.884 24.536C124.108 24.872 125.308 25.04 126.484 25.04C128.86 25.04 130.048 24.452 130.048 23.276C130.048 22.724 129.724 22.328 129.076 22.088C128.428 21.848 127.432 21.644 126.088 21.476C124.504 21.236 123.196 20.96 122.164 20.648C121.132 20.336 120.232 19.784 119.464 18.992C118.72 18.2 118.348 17.072 118.348 15.608C118.348 14.384 118.696 13.304 119.392 12.368C120.112 11.408 121.144 10.664 122.488 10.136C123.856 9.608 125.464 9.344 127.312 9.344C128.68 9.344 130.036 9.5 131.38 9.812C132.748 10.1 133.876 10.508 134.764 11.036L132.892 15.032C131.188 14.072 129.328 13.592 127.312 13.592C126.112 13.592 125.212 13.76 124.612 14.096C124.012 14.432 123.712 14.864 123.712 15.392C123.712 15.992 124.036 16.412 124.684 16.652C125.332 16.892 126.364 17.12 127.78 17.336C129.364 17.6 130.66 17.888 131.668 18.2C132.676 18.488 133.552 19.028 134.296 19.82C135.04 20.612 135.412 21.716 135.412 23.132C135.412 24.332 135.052 25.4 134.332 26.336C133.612 27.272 132.556 28.004 131.164 28.532C129.796 29.036 128.164 29.288 126.268 29.288ZM146.689 9.344C149.689 9.344 151.993 10.064 153.601 11.504C155.209 12.92 156.013 15.068 156.013 17.948V29H150.757V26.588C149.701 28.388 147.733 29.288 144.853 29.288C143.365 29.288 142.069 29.036 140.965 28.532C139.885 28.028 139.057 27.332 138.481 26.444C137.905 25.556 137.617 24.548 137.617 23.42C137.617 21.62 138.289 20.204 139.633 19.172C141.001 18.14 143.101 17.624 145.933 17.624H150.397C150.397 16.4 150.025 15.464 149.281 14.816C148.537 14.144 147.421 13.808 145.933 13.808C144.901 13.808 143.881 13.976 142.873 14.312C141.889 14.624 141.049 15.056 140.353 15.608L138.337 11.684C139.393 10.94 140.653 10.364 142.117 9.956C143.605 9.548 145.129 9.344 146.689 9.344ZM146.257 25.508C147.217 25.508 148.069 25.292 148.813 24.86C149.557 24.404 150.085 23.744 150.397 22.88V20.9H146.545C144.241 20.9 143.089 21.656 143.089 23.168C143.089 23.888 143.365 24.464 143.917 24.896C144.493 25.304 145.273 25.508 146.257 25.508ZM172.868 9.344C175.268 9.344 177.2 10.064 178.664 11.504C180.152 12.944 180.896 15.08 180.896 17.912V29H175.28V18.776C175.28 17.24 174.944 16.1 174.272 15.356C173.6 14.588 172.628 14.204 171.356 14.204C169.94 14.204 168.812 14.648 167.972 15.536C167.132 16.4 166.712 17.696 166.712 19.424V29H161.096V9.632H166.46V11.9C167.204 11.084 168.128 10.46 169.232 10.028C170.336 9.572 171.548 9.344 172.868 9.344ZM198.479 28.064C197.927 28.472 197.243 28.784 196.427 29C195.635 29.192 194.795 29.288 193.907 29.288C191.603 29.288 189.815 28.7 188.543 27.524C187.295 26.348 186.671 24.62 186.671 22.34V14.384H183.683V10.064H186.671V5.348H192.287V10.064H197.111V14.384H192.287V22.268C192.287 23.084 192.491 23.72 192.899 24.176C193.331 24.608 193.931 24.824 194.699 24.824C195.587 24.824 196.343 24.584 196.967 24.104L198.479 28.064Z" fill="#003049"/>
</svg>
